PathFileType	4	(X/Y/Z)	/Users/itak/Documents/Research/Walk-IL/dataset/trc/00441_00167.trc
DataRate	CameraRate	NumFrames	NumMarkers	Units	OrigDataRate	OrigDataStartFrame	OrigNumFrames
100.000000	100.000000	4	53	mm	100.000000	65	520
Frame#	Time	RPSI			LPSI			L3			STRN			T10			C7			CLAV			RBAK			LBAK			LSHO			LUPA			LAEL			LAOL			LWTS			LWPS			LFRA			LIFD			LHPS			LHTS			RSHO			RUPA			RAEL			RAOL			RWTS			RWPS			RFRA			RIFD			RHTS			RHPS			RBHD			LFHD			RFHD			LBHD			LHIP			RHIP			RASI			LASI			LKNE			LTHI			LANK			LTIP			LTOE			LMT1			LMT5			LHEE			RKNE			RTHI			RANK			RTIP			RTOE			RMT1			RMT5			RHEE			
		X1	Y1	Z1	X2	Y2	Z2	X3	Y3	Z3	X4	Y4	Z4	X5	Y5	Z5	X6	Y6	Z6	X7	Y7	Z7	X8	Y8	Z8	X9	Y9	Z9	X10	Y10	Z10	X11	Y11	Z11	X12	Y12	Z12	X13	Y13	Z13	X14	Y14	Z14	X15	Y15	Z15	X16	Y16	Z16	X17	Y17	Z17	X18	Y18	Z18	X19	Y19	Z19	X20	Y20	Z20	X21	Y21	Z21	X22	Y22	Z22	X23	Y23	Z23	X24	Y24	Z24	X25	Y25	Z25	X26	Y26	Z26	X27	Y27	Z27	X28	Y28	Z28	X29	Y29	Z29	X30	Y30	Z30	X31	Y31	Z31	X32	Y32	Z32	X33	Y33	Z33	X34	Y34	Z34	X35	Y35	Z35	X36	Y36	Z36	X37	Y37	Z37	X38	Y38	Z38	X39	Y39	Z39	X40	Y40	Z40	X41	Y41	Z41	X42	Y42	Z42	X43	Y43	Z43	X44	Y44	Z44	X45	Y45	Z45	X46	Y46	Z46	X47	Y47	Z47	X48	Y48	Z48	X49	Y49	Z49	X50	Y50	Z50	X51	Y51	Z51	X52	Y52	Z52	X53	Y53	Z53	

66	0.65	-1186.494873046875	973.7603759765625	-462.2018432617188	-1108.852172851562	971.1859130859375	-579.5870971679688	-1142.837036132812	1061.492431640625	-502.9986572265625	-903.0344848632812	1254.394409179688	-385.4041748046875	-1158.421264648438	1184.229614257812	-518.9287719726562	-1107.873901367188	1451.234619140625	-477.8001098632812	-933.8974609375	1368.235107421875	-406.9581298828125	-1205.494384765625	1332.386352539062	-421.0526733398438	-1091.663696289062	1404.534545898438	-581.0610961914062	-962.1898803710938	1426.202758789062	-604.849853515625	-925.111083984375	1307.131713867188	-697.177001953125	-889.2345581054688	1089.713623046875	-710.465576171875	-991.4673461914062	1075.239135742188	-696.289306640625	-843.3973388671875	891.19287109375	-623.53271484375	-851.7654418945312	872.8544311523438	-695.1455078125	-865.5987548828125	1002.673889160156	-705.1234741210938	-842.9608764648438	722.7515869140625	-619.0444946289062	-846.3966674804688	792.2633666992188	-687.1362915039062	-824.782470703125	802.2715454101562	-619.0984497070312	-1115.839965820312	1421.027099609375	-302.9022827148438	-1162.425048828125	1357.930419921875	-241.7945251464844	-1162.151977539062	1069.203735351562	-187.0017852783203	-1201.909057617188	1052.054443359375	-239.1637268066406	-1043.766357421875	873.1390991210938	-207.5822601318359	-1121.64306640625	853.8655395507812	-170.3660430908203	-1158.238403320312	1010.668395996094	-177.7925109863281	-1037.866455078125	714.18994140625	-200.4098510742188	-1028.29931640625	773.736328125	-192.4616851806641	-1100.348510742188	767.9611206054688	-168.6604461669922	-1088.844116210938	1647.13525390625	-376.176025390625	-892.15771484375	1672.271728515625	-436.1814270019531	-962.287841796875	1672.276611328125	-325.8121337890625	-1007.07275390625	1651.27392578125	-534.374755859375	-938.2586669921875	859.5046997070312	-603.8445434570312	-1169.498657226562	864.0692749023438	-286.2032775878906	-1044.711669921875	901.9609375	-275.7186889648438	-892.9292602539062	894.2791137695312	-483.838134765625	-979.745361328125	438.0148010253906	-574.1380615234375	-937.046875	588.9922485351562	-579.8164672851562	-1063.320556640625	34.24437713623047	-607.095458984375	-990.3272094726562	287.324462890625	-587.22705078125	-906.7241821289062	44.25821304321289	-431.9805603027344	-985.5712890625	50.29019165039062	-444.9735412597656	-928.5404052734375	44.82778549194336	-544.010986328125	-1136.130249023438	38.28489685058594	-592.6513061523438	-1143.810546875	465.2216491699219	-306.5276184082031	-1140.092041015625	727.2513427734375	-258.2506713867188	-1182.822998046875	43.18861770629883	-335.6549377441406	-1156.0087890625	321.6519165039062	-299.4612121582031	-974.3494262695312	49.68693923950195	-276.6036376953125	-1011.611877441406	53.66017532348633	-339.0544128417969	-1077.080322265625	48.14029312133789	-251.4186553955078	-1221.4951171875	36.40957641601562	-406.898681640625	
67	0.66	-1186.288208007812	973.8366088867188	-462.3012084960938	-1108.6455078125	971.287109375	-579.7096557617188	-1142.637084960938	1061.557373046875	-503.0610046386719	-902.7252807617188	1254.337280273438	-385.4561767578125	-1158.126342773438	1184.275634765625	-518.9835205078125	-1107.451171875	1451.289916992188	-477.8459777832031	-933.544921875	1368.194213867188	-406.996337890625	-1205.13037109375	1332.471923828125	-421.0508728027344	-1091.285400390625	1404.555053710938	-581.08447265625	-961.8067626953125	1426.170043945312	-604.904296875	-924.77001953125	1307.049194335938	-697.2457885742188	-888.9444580078125	1089.617919921875	-710.4705200195312	-991.35546875	1075.199951171875	-696.273193359375	-843.1898193359375	891.0903930664062	-623.5067749023438	-851.712890625	872.761474609375	-695.1298828125	-865.3677368164062	1002.616394042969	-705.1053466796875	-842.7199096679688	722.6243286132812	-618.91455078125	-846.2800903320312	792.2208862304688	-687.0838623046875	-824.6729736328125	802.1775512695312	-619.0546264648438	-1115.386108398438	1421.083618164062	-303.0065307617188	-1162.00537109375	1357.996948242188	-241.8362274169922	-1161.676025390625	1069.273681640625	-187.0471038818359	-1201.476318359375	1052.101440429688	-239.1478271484375	-1043.295043945312	873.213623046875	-207.6443328857422	-1121.170288085938	853.897705078125	-170.4061431884766	-1157.757690429688	1010.727416992188	-177.8339233398438	-1037.390625	714.2935791015625	-200.4446563720703	-1027.763549804688	773.8135986328125	-192.5666046142578	-1099.8359375	768.039794921875	-168.7070159912109	-1088.398071289062	1647.209594726562	-376.3179321289062	-891.6382446289062	1672.216552734375	-436.3181457519531	-961.8414306640625	1672.3125	-325.9015808105469	-1006.635986328125	1651.220092773438	-534.4559936523438	-938.1082153320312	859.5426635742188	-603.9441528320312	-1169.348388671875	864.1177978515625	-286.335693359375	-1044.46630859375	901.9317016601562	-275.8179321289062	-892.7821655273438	894.25732421875	-483.98876953125	-979.6156005859375	438.0235595703125	-574.1953735351562	-936.9364013671875	589.0245971679688	-579.9262084960938	-1063.313842773438	34.24880599975586	-607.0839233398438	-990.2037353515625	287.3041381835938	-587.2576904296875	-906.6939086914062	44.21795272827148	-431.9503784179688	-985.5451049804688	50.2934684753418	-444.9655151367188	-928.5126342773438	44.80622482299805	-544.0254516601562	-1136.106567382812	38.34292602539062	-592.6439819335938	-1143.736328125	465.2430114746094	-306.5782775878906	-1139.982421875	727.2555541992188	-258.3721923828125	-1182.811889648438	43.20583724975586	-335.6494445800781	-1155.953369140625	321.6901550292969	-299.4814147949219	-974.3391723632812	49.68714904785156	-276.6015625	-1011.600524902344	53.65806579589844	-339.0537109375	-1077.0751953125	48.14187622070312	-251.4220275878906	-1221.484375	36.42473602294922	-406.9082641601562	
68	0.67	-1186.08837890625	973.9153442382812	-462.4010620117188	-1108.452758789062	971.3733520507812	-579.8517456054688	-1142.4482421875	1061.624755859375	-503.1212768554688	-902.413330078125	1254.275512695312	-385.5108337402344	-1157.85693359375	1184.33349609375	-519.0191040039062	-1107.026977539062	1451.345336914062	-477.8840942382812	-933.1890869140625	1368.154296875	-407.0326538085938	-1204.771240234375	1332.556884765625	-421.035400390625	-1090.899047851562	1404.585083007812	-581.1199340820312	-961.4265747070312	1426.142578125	-604.9464721679688	-924.4254150390625	1306.981811523438	-697.30615234375	-888.6500244140625	1089.537231445312	-710.4656982421875	-991.1984252929688	1075.149658203125	-696.250732421875	-842.9771728515625	890.9884643554688	-623.4773559570312	-851.6649780273438	872.67626953125	-695.1207885742188	-865.1386108398438	1002.555297851562	-705.0783081054688	-842.4898071289062	722.5184326171875	-618.7892456054688	-846.1240844726562	792.1900024414062	-687.0223999023438	-824.557373046875	802.0807495117188	-619.0108032226562	-1114.930908203125	1421.134033203125	-303.0883483886719	-1161.57568359375	1358.062377929688	-241.8637847900391	-1161.202392578125	1069.345825195312	-187.0742797851562	-1201.044189453125	1052.150268554688	-239.1206207275391	-1042.83837890625	873.2850952148438	-207.6958312988281	-1120.70166015625	853.93017578125	-170.4417266845703	-1157.272827148438	1010.783142089844	-177.8712310791016	-1036.924926757812	714.3934936523438	-200.4831848144531	-1027.229370117188	773.890625	-192.6951904296875	-1099.320556640625	768.1112670898438	-168.7586975097656	-1087.949340820312	1647.28271484375	-376.4462890625	-891.1245727539062	1672.158325195312	-436.4519653320312	-961.3938598632812	1672.364013671875	-326.0009460449219	-1006.20849609375	1651.170166015625	-534.5494995117188	-937.9503784179688	859.5855712890625	-604.0450439453125	-1169.196533203125	864.167236328125	-286.4823913574219	-1044.23095703125	901.8964233398438	-275.939697265625	-892.6339721679688	894.2395629882812	-484.1611022949219	-979.4755249023438	438.0374755859375	-574.2627563476562	-936.8394165039062	589.0623779296875	-580.0419311523438	-1063.302734375	34.25162506103516	-607.0723876953125	-990.0847778320312	287.2842712402344	-587.287841796875	-906.6630249023438	44.17797470092773	-431.9205932617188	-985.5186767578125	50.29762268066406	-444.9580078125	-928.4866943359375	44.78244781494141	-544.0382080078125	-1136.078491210938	38.40507125854492	-592.637451171875	-1143.654663085938	465.2610168457031	-306.6294250488281	-1139.888549804688	727.2590942382812	-258.4677734375	-1182.7998046875	43.22333145141602	-335.6450500488281	-1155.8974609375	321.7262878417969	-299.4990539550781	-974.3296508789062	49.68746566772461	-276.5990600585938	-1011.587707519531	53.65475845336914	-339.0524291992188	-1077.068359375	48.14479827880859	-251.4255676269531	-1221.472900390625	36.44126129150391	-406.9156494140625	
69	0.68	-1185.900268554688	973.9942016601562	-462.4961242675781	-1108.271606445312	971.4385986328125	-580.01025390625	-1142.265625	1061.696166992188	-503.1838989257812	-902.0963134765625	1254.209228515625	-385.5703125	-1157.60693359375	1184.406372070312	-519.0382690429688	-1106.60302734375	1451.400024414062	-477.9170227050781	-932.8279418945312	1368.11279296875	-407.069091796875	-1204.416625976562	1332.6416015625	-421.0105285644531	-1090.507568359375	1404.626098632812	-581.16650390625	-961.0465698242188	1426.12158203125	-604.9794311523438	-924.0706787109375	1306.930541992188	-697.3532104492188	-888.3570556640625	1089.471557617188	-710.4525756835938	-990.988037109375	1075.091796875	-696.2271728515625	-842.76220703125	890.8870849609375	-623.4446411132812	-851.6166381835938	872.5997314453125	-695.1163940429688	-864.9119873046875	1002.489440917969	-705.0439453125	-842.2794189453125	722.4317626953125	-618.67041015625	-845.933349609375	792.1671752929688	-686.9515380859375	-824.44091796875	801.9818725585938	-618.9651489257812	-1114.478271484375	1421.177490234375	-303.1407775878906	-1161.135009765625	1358.1259765625	-241.8744201660156	-1160.735717773438	1069.416625976562	-187.0779724121094	-1200.615234375	1052.201416015625	-239.0821533203125	-1042.392211914062	873.3532104492188	-207.7411956787109	-1120.231201171875	853.9652099609375	-170.4750671386719	-1156.78271484375	1010.836181640625	-177.9045104980469	-1036.462280273438	714.4861450195312	-200.5362396240234	-1026.705810546875	773.9661254882812	-192.8362884521484	-1098.802978515625	768.1755981445312	-168.8130035400391	-1087.493896484375	1647.351928710938	-376.5582275390625	-890.6229858398438	1672.102416992188	-436.576904296875	-960.943115234375	1672.429809570312	-326.1126708984375	-1005.778442382812	1651.121215820312	-534.665283203125	-937.79052734375	859.6284790039062	-604.1478881835938	-1169.044921875	864.2145385742188	-286.6404113769531	-1044.015747070312	901.854736328125	-276.08154296875	-892.4918212890625	894.2276611328125	-484.3532104492188	-979.3271484375	438.0636291503906	-574.3353271484375	-936.7607421875	589.1029663085938	-580.1666259765625	-1063.287963867188	34.25365447998047	-607.0610961914062	-989.9721069335938	287.2680358886719	-587.3197021484375	-906.6323852539062	44.13922500610352	-431.8919677734375	-985.4935302734375	50.30245590209961	-444.9518432617188	-928.4625244140625	44.75761795043945	-544.0499877929688	-1136.0478515625	38.47182083129883	-592.6322631835938	-1143.565185546875	465.2749328613281	-306.6803283691406	-1139.806762695312	727.2675170898438	-258.5440063476562	-1182.78759765625	43.24143981933594	-335.6438293457031	-1155.841918945312	321.7601013183594	-299.5147399902344	-974.3216552734375	49.68778610229492	-276.5964660644531	-1011.574523925781	53.6504020690918	-339.051025390625	-1077.059692382812	48.14919281005859	-251.4291076660156	-1221.461303710938	36.45899963378906	-406.9198913574219	
